<?xml version="1.0" encoding="utf-8"?>
<!-- Generator: Adobe Illustrator 16.0.3, SVG Export Plug-In . SVG Version: 6.00 Build 0)  -->
<!DOCTYPE svg PUBLIC "-//W3C//DTD SVG 1.1//EN" "http://www.w3.org/Graphics/SVG/1.1/DTD/svg11.dtd">
<svg version="1.1" id="Layer_1" xmlns="http://www.w3.org/2000/svg" xmlns:xlink="http://www.w3.org/1999/xlink" x="0px" y="0px"
	 width="216px" height="216px" viewBox="0 0 216 216" enable-background="new 0 0 216 216" xml:space="preserve">
<circle fill="#FFFFFF" cx="108" cy="108" r="108"/>
<g>
	<g>
		<path d="M106.837,75.709c-2.849-2.989-10.226-1.121-11.335-5.219c-1.115-4.104,0-11.336,0-11.336
			c0.832,2.71,10.152,0.977,11.335,5.222C108.024,68.61,106.837,75.709,106.837,75.709z"/>
		<path d="M107.75,63.686c-1.158-3.305-7.507-4.425-6.936-7.984c0.566-3.562,3.948-8.758,3.948-8.758
			c-0.298,2.386,7.506,4.298,6.946,7.986C111.145,58.619,107.75,63.686,107.75,63.686z"/>
		<path d="M109.065,75.709c2.847-2.989,10.219-1.121,11.327-5.219c1.115-4.104,0-11.336,0-11.336
			c-0.832,2.71-10.155,0.977-11.327,5.222C107.882,68.61,109.065,75.709,109.065,75.709z"/>
	</g>
	<g>
		<path d="M109.059,140.291c2.847,2.988,10.226,1.115,11.334,5.218c1.115,4.106,0,11.338,0,11.338
			c-0.828-2.709-10.147-0.979-11.334-5.222C107.875,147.389,109.059,140.291,109.059,140.291z"/>
		<path d="M108.15,152.308c1.152,3.311,7.507,4.433,6.933,7.989c-0.564,3.562-3.952,8.76-3.952,8.76
			c0.298-2.386-7.502-4.3-6.94-7.987C104.754,157.382,108.15,152.308,108.15,152.308z"/>
		<path d="M106.833,140.291c-2.849,2.988-10.221,1.115-11.331,5.218c-1.115,4.106,0,11.338,0,11.338
			c0.835-2.709,10.156-0.979,11.331-5.222C108.018,147.389,106.833,140.291,106.833,140.291z"/>
	</g>
	<g>
		<path d="M129.922,133.108c-6.67-5.952-9.83-16.321-9.83-24.078c0-9.281,2.979-17.667,9.284-24.423
			c5.142-5.498,12.629-9.747,23.807-9.747c8.202,0,14.968,2.074,18.119,3.796c1.262,0.634,1.712,0.533,1.895-0.097l0.717-2.245
			c0.19-0.549,0.367-0.549,1.722-0.549c1.341,0,1.532,0.186,1.532,1.448c0,1.709,1.618,17.034,2.063,19.736
			c0.096,0.633,0,1.092-0.446,1.177l-1.99,0.541c-0.441,0.182-0.803-0.185-1.077-0.993c-0.988-3.605-3.423-8.204-7.212-12.08
			c-3.875-3.786-8.655-6.762-15.512-6.762c-13.159,0-18.742,11.994-18.652,25.34c0,5.681,1.626,16.754,8.019,23.527
			c5.862,6.039,11.003,6.76,14.071,6.76c10.275,0,17.944-4.688,21.275-9.644c0.448-0.727,0.894-1.09,1.355-0.727l1.53,1.354
			c0.274,0.189,0.355,0.54,0,1.082c-5.228,7.574-13.979,14.874-26.692,14.874C141.918,141.399,135.596,138.161,129.922,133.108z"/>
	</g>
	<g>
		<path d="M62.097,141.399c-12.715,0-21.46-7.3-26.68-14.874c-0.369-0.542-0.288-0.893,0-1.082l1.526-1.354
			c0.443-0.363,0.896,0,1.343,0.727c3.343,4.955,11.001,9.644,21.28,9.644c3.066,0,8.208-0.721,14.073-6.76
			c6.391-6.773,8.01-17.847,8.01-23.527C81.751,90.827,76.16,78.833,63,78.833c-6.861,0-11.632,2.976-15.505,6.762
			c-3.792,3.876-6.226,8.475-7.219,12.08c-0.268,0.809-0.631,1.175-1.079,0.993l-1.983-0.541c-0.46-0.085-0.539-0.544-0.46-1.177
			c0.46-2.702,2.086-18.027,2.086-19.736c0-1.263,0.171-1.448,1.52-1.448c1.357,0,1.535,0,1.715,0.549L42.8,78.56
			c0.182,0.63,0.643,0.73,1.897,0.097c3.154-1.722,9.917-3.796,18.126-3.796c11.171,0,18.656,4.249,23.798,9.747
			c6.312,6.756,9.285,15.142,9.285,24.423c0,7.757-3.161,18.126-9.83,24.078C80.391,138.161,74.083,141.399,62.097,141.399z"/>
	</g>
	<path d="M109.822,135.798c0,1.008-0.815,1.824-1.825,1.824l0,0c-1.008,0-1.823-0.816-1.823-1.824V80.46
		c0-1.009,0.815-1.822,1.823-1.822l0,0c1.01,0,1.825,0.813,1.825,1.822V135.798z"/>
</g>
</svg>
